{"title":"300 DVDrip MP3 192kbps [Kpoch]","uid":7140413,"size":1468293120,"categoryP":"video","categoryS":"movies","magnet":"?xt=urn:btih:17d254a4505b0b93c164a72510c5a0a872d8a341&amp;dn=300+DVDrip+MP3+192kbps+%5BKpoch%5D&amp;tr=udp%3A%2F%2Ftracker.openbittorrent.com%3A80&amp;tr=udp%3A%2F%2Fopen.demonii.com%3A1337&amp;tr=udp%3A%2F%2Ftracker.coppersurfer.tk%3A6969&amp;tr=udp%3A%2F%2Fexodus.desync.com%3A6969","seeders":0,"leechers":0,"uploader":"Kpoch","files":1,"time":1332981833,"description":"Movie Ripped from original DVD by KPOCH from Mexico  ENJOY\n\nFormat                                   : AVI\nFormat/Info                              : Audio Video Interleave\nFile size                                : 1.37 GiB\nDuration                                 : 1h 56mn\nOverall bit rate mode                    : Variable\nOverall bit rate                         : 1 679 Kbps\nWriting application                      : VirtualDubMod 1.5.4.1 (build 2178/release)\nWriting library                          : VirtualDubMod build 2178/release\n\nVideo\nID                                       : 0\nFormat                                   : MPEG-4 Visual\nFormat profile                           : Advanced Simple@L5\nFormat settings, BVOP                    : 1\nFormat settings, QPel                    : No\nFormat settings, GMC                     : No warppoints\nFormat settings, Matrix                  : Custom\nCodec ID                                 : XVID\nCodec ID/Hint                            : XviD\nDuration                                 : 1h 56mn\nBit rate                                 : 1 486 Kbps\nWidth                                    : 720 pixels\nHeight                                   : 416 pixels\nDisplay aspect ratio                     : 16:9\nFrame rate                               : 23.976 fps\nColor space                              : YUV\nChroma subsampling                       : 4:2:0\nBit depth                                : 8 bits\nScan type                                : Progressive\nCompression mode                         : Lossy\nBits/(Pixel*Frame)                       : 0.207\nStream size                              : 1.21 GiB (89%)\nWriting library                          : XviD 1.2.1 (UTC 2008-12-04)\n\nAudio\nID                                       : 1\nFormat                                   : MPEG Audio\nFormat version                           : Version 1\nFormat profile                           : Layer 3\nMode                                     : Joint stereo\nCodec ID                                 : 55\nCodec ID/Hint                            : MP3\nDuration                                 : 1h 56mn\nBit rate mode                            : Variable\nBit rate                                 : 180 Kbps\nChannel(s)                               : 2 channels\nSampling rate                            : 48.0 KHz\nCompression mode                         : Lossy\nStream size                              : 150 MiB (11%)\nAlignment                                : Aligned on interleaves\nInterleave, duration                     : 24 ms (0.58 video frame)\nInterleave, preload duration             : 89 ms\nWriting library                          : LAME3.98.2\nLanguage                                 : English\n\n--------------------------------------------------------\nCapture:http://www.freeimagehosting.net/wtfzh\n--------------------------------------------------------","torrent":{"xt":"urn:btih:17d254a4505b0b93c164a72510c5a0a872d8a341","amp;dn":"300+DVDrip+MP3+192kbps+%5BKpoch%5D","amp;tr":["udp%3A%2F%2Ftracker.openbittorrent.com%3A80","udp%3A%2F%2Fopen.demonii.com%3A1337","udp%3A%2F%2Ftracker.coppersurfer.tk%3A6969","udp%3A%2F%2Fexodus.desync.com%3A6969"],"infoHash":"17d254a4505b0b93c164a72510c5a0a872d8a341","infoHashBuffer":{"type":"Buffer","data":[23,210,84,164,80,91,11,147,193,100,167,37,16,197,160,168,114,216,163,65]},"announce":[],"urlList":[]}}